<svg xmlns="http://www.w3.org/2000/svg" viewBox="0 0 501 327.08"><title>vr</title><g id="Layer_2" data-name="Layer 2"><g id="Logo"><path d="M19.81,47.23C29.84,37.88,42,30.9,59.24,27.87L201.11,3C265.54-8.33,314.6,21.25,370.71,47.31c-15.63,13.12-32.09,20.32-50.87,28.17C284.19,53,248.78,29.56,192.26,40.81L61.33,66.87c-16.52,3.29-27.57,9.34-36.07,17.91-8.42-9.07-10.51-21.65-5.45-37.55ZM191.07,153.16c-58.94,13.38-64.7,191.11,17.47,172,83.85-19.51,162.4-47.41,243.58-75.94C504,231,522.79,82.35,464.92,94.64,373.61,114,282.1,132.5,191.07,153.16Zm16.06,15.57c-21.72,5.13-35,35.51-37.88,67.89,5.36-25.43,20.84-48.26,38.74-52.28l260.64-58.59c7-1.58,13.73,1,18.34,4.21-4.83-12.51-13.73-19.73-27.41-16.7-80.64,17.87-172,36.48-252.43,55.47Zm251.66-85L391.57,55.54c-4.52-1.9-8.92-2.7-13.26-.95-69.43,53.83-182.3,52.17-261,47.22-71-4.45-75.34,95.83-34.84,134.23l60.91,57.76c-25.68-44.92-7.15-142.23,35.58-151.93,91-20.67,178.91-38.31,270.22-57.7a28,28,0,0,1,9.65-.48ZM92.41,115.41C78.92,122,70,140.29,68.28,157l58,42.54c2.78-21.27,13.62-41.71,24.32-52L92.41,115.41Zm-30.34,4.15c-26.35-14.33-59.53-28.5-50.53-63-6,6.95-8.31,14.87-9.36,24.76C1.25,90.14.24,108.45.56,116.83c.9,23.4,12.25,33.4,50.37,73.49-5.25-24.63-1.79-52.1,11.14-70.76Z" fill="none" stroke="#000" stroke-miterlimit="10" fill-rule="evenodd"/></g></g></svg>